<svg width="22" height="22" viewBox="0 0 22 22" fill="none" xmlns="http://www.w3.org/2000/svg">
<ellipse cx="10.8731" cy="10.9713" rx="10.231" ry="10.3229" fill="#2F80ED"/>
<path d="M17.7484 15.0923C16.8533 16.6167 15.4837 17.7995 13.8529 18.4565C12.2221 19.1135 10.4217 19.2078 8.7322 18.7246C7.04273 18.2415 5.5591 17.2081 4.51249 15.7854C3.46588 14.3627 2.91506 12.6306 2.94587 10.8591C2.97668 9.08764 3.58738 7.37617 4.68282 5.9914C5.77826 4.60664 7.29691 3.62637 9.00213 3.20332C10.7074 2.78028 12.5034 2.93823 14.1104 3.65256C15.7173 4.36689 17.045 5.59748 17.8865 7.15258L10.9021 11L17.7484 15.0923Z" fill="white"/>
<ellipse cx="10.8731" cy="10.9703" rx="5.68391" ry="5.73492" fill="#2F80ED"/>
<ellipse cx="10.9299" cy="11.0279" rx="2.78512" ry="2.81012" fill="white"/>
</svg>
